<svg width="208" height="56" viewBox="0 0 208 56" fill="none" xmlns="http://www.w3.org/2000/svg">
<path d="M71.364 7.8H83.244C86.364 7.8 88.632 8.652 90.048 10.356C91.464 12.036 91.92 14.076 91.416 16.476C90.744 19.62 89.088 22.488 86.448 25.08C83.808 27.672 80.844 29.64 77.556 30.984C74.268 32.328 71.112 33 68.088 33H66.072C66.072 32.928 66.072 32.832 66.072 32.712C66.096 32.592 66.12 32.496 66.144 32.424C66.744 32.424 67.308 32.208 67.836 31.776C68.388 31.32 68.724 30.816 68.844 30.264L72.804 11.58C72.948 10.956 72.852 10.272 72.516 9.528C72.204 8.76 71.772 8.376 71.22 8.376L71.364 7.8ZM74.712 29.94C77.136 29.076 79.416 27.48 81.552 25.152C83.688 22.824 85.104 20.064 85.8 16.872C86.232 14.784 85.992 13.044 85.08 11.652C84.192 10.236 82.908 9.528 81.228 9.528C80.1 9.528 79.224 9.708 78.6 10.068C77.976 10.404 77.568 11.04 77.376 11.976L73.776 29.004C73.656 29.484 73.704 29.796 73.92 29.94C74.136 30.084 74.4 30.084 74.712 29.94ZM107.738 28.5L108.314 29.328C107.834 29.832 107.27 30.336 106.622 30.84C105.974 31.344 105.038 31.872 103.814 32.424C102.59 32.952 101.366 33.216 100.142 33.216C97.6221 33.216 95.6421 32.52 94.2021 31.128C92.7621 29.736 92.0181 27.924 91.9701 25.692C91.9221 23.796 92.3421 21.936 93.2301 20.112C94.1421 18.264 95.4861 16.704 97.2621 15.432C99.0381 14.16 101.03 13.524 103.238 13.524C105.23 13.524 106.682 14.004 107.594 14.964C108.506 15.924 108.974 17.052 108.998 18.348C108.998 19.74 108.458 20.88 107.378 21.768C106.298 22.656 104.918 23.316 103.238 23.748C101.078 24.3 99.0861 24.84 97.2621 25.368C97.1661 26.88 97.6581 28.128 98.7381 29.112C99.8181 30.072 101.03 30.552 102.374 30.552C104.246 30.552 106.034 29.868 107.738 28.5ZM103.022 15.504C101.774 15.504 100.574 16.272 99.4221 17.808C98.2941 19.344 97.6221 21.156 97.4061 23.244C97.6941 23.172 98.5341 22.944 99.9261 22.56C101.342 22.152 102.29 21.876 102.77 21.732C103.658 21.468 104.33 21.012 104.786 20.364C105.266 19.692 105.506 18.948 105.506 18.132C105.506 17.412 105.278 16.8 104.822 16.296C104.39 15.768 103.79 15.504 103.022 15.504ZM117.971 28.68H119.555C119.387 29.208 119.207 29.664 119.015 30.048C118.823 30.432 118.523 30.9 118.115 31.452C117.707 32.004 117.179 32.436 116.531 32.748C115.883 33.036 115.139 33.18 114.299 33.18C112.955 33.18 111.983 32.844 111.383 32.172C110.783 31.5 110.603 30.54 110.843 29.292L114.983 9.96C115.103 9.336 114.995 8.76 114.659 8.232C114.323 7.68 113.867 7.404 113.291 7.404L113.435 6.72L120.491 5.172L115.343 29.292C115.079 30.636 115.247 31.308 115.847 31.308C116.591 31.308 117.299 30.432 117.971 28.68ZM128.207 28.68H129.791C129.647 29.112 129.467 29.544 129.251 29.976C129.059 30.384 128.759 30.864 128.351 31.416C127.967 31.944 127.439 32.376 126.767 32.712C126.119 33.024 125.375 33.18 124.535 33.18C121.679 33.18 120.503 31.884 121.007 29.292L123.491 17.736C123.635 17.088 123.587 16.512 123.347 16.008C123.107 15.504 122.711 15.252 122.159 15.252L122.303 14.568L128.963 13.38L125.579 29.292C125.315 30.636 125.483 31.308 126.083 31.308C126.827 31.308 127.535 30.432 128.207 28.68ZM126.695 11.58C125.975 11.58 125.423 11.316 125.039 10.788C124.655 10.26 124.535 9.636 124.679 8.916C124.847 8.172 125.243 7.548 125.867 7.044C126.491 6.516 127.151 6.252 127.847 6.252C128.615 6.252 129.203 6.516 129.611 7.044C130.019 7.548 130.139 8.172 129.971 8.916C129.803 9.636 129.395 10.26 128.747 10.788C128.123 11.316 127.439 11.58 126.695 11.58ZM146.468 28.248L147.332 29.472C145.7 30.888 144.308 31.86 143.156 32.388C141.908 32.94 140.684 33.216 139.484 33.216C136.508 33.216 134.264 32.256 132.752 30.336C131.264 28.416 130.808 26.052 131.384 23.244C132.008 20.388 133.352 18.06 135.416 16.26C137.48 14.46 139.868 13.56 142.58 13.56C144.884 13.56 146.636 14.256 147.836 15.648C149.036 17.016 149.492 18.36 149.204 19.68C149.084 20.304 148.748 20.796 148.196 21.156C147.644 21.492 147.044 21.66 146.396 21.66C146.084 21.66 145.76 21.612 145.424 21.516C145.088 21.42 144.824 21.324 144.632 21.228L144.38 21.084C144.428 20.772 144.452 20.352 144.452 19.824C144.476 19.272 144.44 18.624 144.344 17.88C144.272 17.112 144.02 16.476 143.588 15.972C143.18 15.444 142.628 15.18 141.932 15.18C140.876 15.18 139.772 15.876 138.62 17.268C137.468 18.636 136.688 20.328 136.28 22.344C135.8 24.576 135.992 26.496 136.856 28.104C137.744 29.712 139.268 30.516 141.428 30.516C142.94 30.516 144.62 29.76 146.468 28.248ZM157.809 28.68H159.393C159.249 29.112 159.069 29.544 158.853 29.976C158.661 30.384 158.361 30.864 157.953 31.416C157.569 31.944 157.041 32.376 156.369 32.712C155.721 33.024 154.977 33.18 154.137 33.18C151.281 33.18 150.105 31.884 150.609 29.292L153.093 17.736C153.237 17.088 153.189 16.512 152.949 16.008C152.709 15.504 152.313 15.252 151.761 15.252L151.905 14.568L158.565 13.38L155.181 29.292C154.917 30.636 155.085 31.308 155.685 31.308C156.429 31.308 157.137 30.432 157.809 28.68ZM156.297 11.58C155.577 11.58 155.025 11.316 154.641 10.788C154.257 10.26 154.137 9.636 154.281 8.916C154.449 8.172 154.845 7.548 155.469 7.044C156.093 6.516 156.753 6.252 157.449 6.252C158.217 6.252 158.805 6.516 159.213 7.044C159.621 7.548 159.741 8.172 159.573 8.916C159.405 9.636 158.997 10.26 158.349 10.788C157.725 11.316 157.041 11.58 156.297 11.58ZM165.378 16.296C167.73 14.376 170.37 13.416 173.298 13.416C176.226 13.416 178.458 14.376 179.994 16.296C181.53 18.216 181.998 20.568 181.398 23.352C180.822 26.136 179.358 28.5 177.006 30.444C174.654 32.364 172.014 33.324 169.086 33.324C166.158 33.324 163.926 32.364 162.39 30.444C160.854 28.5 160.374 26.136 160.95 23.352C161.55 20.568 163.026 18.216 165.378 16.296ZM170.058 31.488C171.33 31.488 172.554 30.72 173.73 29.184C174.906 27.648 175.662 25.728 175.998 23.424C176.334 21.072 176.13 19.104 175.386 17.52C174.666 15.936 173.598 15.144 172.182 15.144C170.886 15.144 169.638 15.924 168.438 17.484C167.238 19.044 166.47 20.976 166.134 23.28C165.822 25.632 166.038 27.588 166.782 29.148C167.55 30.708 168.642 31.488 170.058 31.488ZM190.312 28.968C190.576 28.968 191.068 29.016 191.788 29.112C192.532 29.184 193.228 29.244 193.876 29.292C194.524 29.34 195.196 29.34 195.892 29.292C196.612 29.244 197.224 29.064 197.728 28.752C198.256 28.44 198.616 27.996 198.808 27.42H199.312C199.288 27.588 199.24 27.804 199.168 28.068C199.12 28.332 198.952 28.812 198.664 29.508C198.4 30.18 198.076 30.78 197.692 31.308C197.308 31.812 196.768 32.28 196.072 32.712C195.376 33.144 194.596 33.36 193.732 33.36C193.372 33.36 192.412 33.252 190.852 33.036C189.292 32.82 187.912 32.688 186.712 32.64C185.512 32.568 184.012 32.688 182.212 33C182.212 32.832 182.236 32.616 182.284 32.352C182.356 32.088 182.572 31.596 182.932 30.876C183.292 30.156 183.76 29.508 184.336 28.932L194.416 19.068C195.4 18.036 195.94 17.34 196.036 16.98C195.508 17.364 194.584 17.556 193.264 17.556C193.144 17.556 192.388 17.484 190.996 17.34C189.628 17.196 188.56 17.208 187.792 17.376C187.024 17.544 186.484 17.964 186.172 18.636H185.668C185.668 18.492 185.668 18.3 185.668 18.06C185.692 17.82 185.788 17.4 185.956 16.8C186.124 16.2 186.376 15.672 186.712 15.216C187.048 14.76 187.588 14.34 188.332 13.956C189.076 13.572 189.964 13.38 190.996 13.38C191.596 13.38 192.472 13.476 193.624 13.668C194.8 13.86 195.856 13.98 196.792 14.028C197.752 14.076 199.3 13.98 201.436 13.74C201.124 15.108 200.26 16.548 198.844 18.06L188.296 27.852C188.176 27.996 187.996 28.188 187.756 28.428C187.516 28.668 187.324 28.884 187.18 29.076C187.06 29.244 186.964 29.424 186.892 29.616C187.66 29.184 188.8 28.968 190.312 28.968Z" fill="white"/>
<path d="M66.7 51V43.8H69.675C69.745 43.8 69.835 43.8033 69.945 43.81C70.055 43.8133 70.1567 43.8233 70.25 43.84C70.6667 43.9033 71.01 44.0417 71.28 44.255C71.5533 44.4683 71.755 44.7383 71.885 45.065C72.0183 45.3883 72.085 45.7483 72.085 46.145C72.085 46.7317 71.9367 47.2367 71.64 47.66C71.3433 48.08 70.8883 48.34 70.275 48.44L69.76 48.485H67.905V51H66.7ZM70.835 51L69.415 48.07L70.64 47.8L72.2 51H70.835ZM67.905 47.36H69.625C69.6917 47.36 69.7667 47.3567 69.85 47.35C69.9333 47.3433 70.01 47.33 70.08 47.31C70.28 47.26 70.4367 47.1717 70.55 47.045C70.6667 46.9183 70.7483 46.775 70.795 46.615C70.845 46.455 70.87 46.2983 70.87 46.145C70.87 45.9917 70.845 45.835 70.795 45.675C70.7483 45.5117 70.6667 45.3667 70.55 45.24C70.4367 45.1133 70.28 45.025 70.08 44.975C70.01 44.955 69.9333 44.9433 69.85 44.94C69.7667 44.9333 69.6917 44.93 69.625 44.93H67.905V47.36ZM75.8016 51V43.8H80.4516V44.93H77.0066V46.705H79.8516V47.835H77.0066V49.87H80.4516V51H75.8016ZM86.7478 51.15C86.2211 51.15 85.7461 51.0583 85.3228 50.875C84.9028 50.6917 84.5561 50.43 84.2828 50.09C84.0128 49.7467 83.8411 49.34 83.7678 48.87L85.0178 48.68C85.1245 49.1067 85.3428 49.4367 85.6728 49.67C86.0061 49.9033 86.3895 50.02 86.8228 50.02C87.0795 50.02 87.3211 49.98 87.5478 49.9C87.7745 49.82 87.9578 49.7033 88.0978 49.55C88.2411 49.3967 88.3128 49.2083 88.3128 48.985C88.3128 48.885 88.2961 48.7933 88.2628 48.71C88.2295 48.6233 88.1795 48.5467 88.1128 48.48C88.0495 48.4133 87.9661 48.3533 87.8628 48.3C87.7628 48.2433 87.6461 48.195 87.5128 48.155L85.6528 47.605C85.4928 47.5583 85.3195 47.4967 85.1328 47.42C84.9495 47.34 84.7745 47.2317 84.6078 47.095C84.4445 46.955 84.3095 46.7783 84.2028 46.565C84.0995 46.3483 84.0478 46.0817 84.0478 45.765C84.0478 45.3017 84.1645 44.9133 84.3978 44.6C84.6345 44.2833 84.9511 44.0467 85.3478 43.89C85.7478 43.7333 86.1911 43.6567 86.6778 43.66C87.1711 43.6633 87.6111 43.7483 87.9978 43.915C88.3845 44.0783 88.7078 44.3167 88.9678 44.63C89.2278 44.9433 89.4111 45.3217 89.5178 45.765L88.2228 45.99C88.1695 45.7367 88.0661 45.5217 87.9128 45.345C87.7628 45.165 87.5778 45.0283 87.3578 44.935C87.1411 44.8417 86.9095 44.7917 86.6628 44.785C86.4228 44.7817 86.1995 44.8183 85.9928 44.895C85.7895 44.9683 85.6245 45.075 85.4978 45.215C85.3745 45.355 85.3128 45.5183 85.3128 45.705C85.3128 45.8817 85.3661 46.0267 85.4728 46.14C85.5795 46.25 85.7111 46.3383 85.8678 46.405C86.0278 46.4683 86.1895 46.5217 86.3528 46.565L87.6428 46.925C87.8195 46.9717 88.0178 47.035 88.2378 47.115C88.4578 47.195 88.6695 47.3067 88.8728 47.45C89.0761 47.5933 89.2428 47.7817 89.3728 48.015C89.5061 48.2483 89.5728 48.545 89.5728 48.905C89.5728 49.2783 89.4945 49.6067 89.3378 49.89C89.1845 50.17 88.9761 50.4033 88.7128 50.59C88.4495 50.7767 88.1478 50.9167 87.8078 51.01C87.4711 51.1033 87.1178 51.15 86.7478 51.15ZM94.8851 51V44.93H92.5551V43.8H98.4201V44.93H96.0901V51H94.8851ZM101.024 51L103.294 43.8H105.059L107.329 51H106.089L104.029 44.54H104.299L102.264 51H101.024ZM102.289 49.44V48.315H106.069V49.44H102.289ZM113.438 51.15C112.865 51.15 112.36 51.0333 111.923 50.8C111.49 50.5667 111.15 50.2383 110.903 49.815C110.66 49.3917 110.538 48.895 110.538 48.325V43.81L111.758 43.8V48.295C111.758 48.565 111.803 48.8067 111.893 49.02C111.986 49.2333 112.111 49.415 112.268 49.565C112.425 49.7117 112.605 49.8233 112.808 49.9C113.011 49.9767 113.221 50.015 113.438 50.015C113.661 50.015 113.873 49.9767 114.073 49.9C114.276 49.82 114.456 49.7067 114.613 49.56C114.77 49.41 114.893 49.2283 114.983 49.015C115.073 48.8017 115.118 48.5617 115.118 48.295V43.8H116.338V48.325C116.338 48.895 116.215 49.3917 115.968 49.815C115.725 50.2383 115.385 50.5667 114.948 50.8C114.515 51.0333 114.011 51.15 113.438 51.15ZM120.235 51V43.8H123.21C123.28 43.8 123.37 43.8033 123.48 43.81C123.59 43.8133 123.692 43.8233 123.785 43.84C124.202 43.9033 124.545 44.0417 124.815 44.255C125.088 44.4683 125.29 44.7383 125.42 45.065C125.553 45.3883 125.62 45.7483 125.62 46.145C125.62 46.7317 125.472 47.2367 125.175 47.66C124.878 48.08 124.423 48.34 123.81 48.44L123.295 48.485H121.44V51H120.235ZM124.37 51L122.95 48.07L124.175 47.8L125.735 51H124.37ZM121.44 47.36H123.16C123.227 47.36 123.302 47.3567 123.385 47.35C123.468 47.3433 123.545 47.33 123.615 47.31C123.815 47.26 123.972 47.1717 124.085 47.045C124.202 46.9183 124.283 46.775 124.33 46.615C124.38 46.455 124.405 46.2983 124.405 46.145C124.405 45.9917 124.38 45.835 124.33 45.675C124.283 45.5117 124.202 45.3667 124.085 45.24C123.972 45.1133 123.815 45.025 123.615 44.975C123.545 44.955 123.468 44.9433 123.385 44.94C123.302 44.9333 123.227 44.93 123.16 44.93H121.44V47.36ZM128.837 51L131.107 43.8H132.872L135.142 51H133.902L131.842 44.54H132.112L130.077 51H128.837ZM130.102 49.44V48.315H133.882V49.44H130.102ZM138.546 51V43.8H139.766L143.106 48.875V43.8H144.326V51H143.106L139.766 45.925V51H138.546ZM149.953 51V44.93H147.623V43.8H153.488V44.93H151.158V51H149.953ZM163.372 51.15C162.972 51.15 162.594 51.0917 162.237 50.975C161.884 50.855 161.589 50.6667 161.352 50.41C161.162 50.2 161.022 49.9717 160.932 49.725C160.845 49.475 160.797 49.2083 160.787 48.925C160.787 48.6483 160.827 48.38 160.907 48.12C160.99 47.86 161.117 47.63 161.287 47.43C161.354 47.35 161.425 47.28 161.502 47.22C161.582 47.1567 161.662 47.1 161.742 47.05C161.545 46.83 161.395 46.6167 161.292 46.41C161.192 46.2033 161.142 45.96 161.142 45.68C161.142 45.26 161.255 44.8833 161.482 44.55C161.709 44.2167 162.017 43.9767 162.407 43.83C162.577 43.7667 162.749 43.7233 162.922 43.7C163.099 43.6767 163.27 43.665 163.437 43.665C163.75 43.665 164.052 43.7133 164.342 43.81C164.632 43.9033 164.879 44.0567 165.082 44.27C165.212 44.3933 165.32 44.5333 165.407 44.69C165.494 44.8433 165.559 45.0017 165.602 45.165L164.412 45.42C164.365 45.27 164.284 45.1417 164.167 45.035C164.067 44.9383 163.949 44.875 163.812 44.845C163.675 44.8117 163.54 44.795 163.407 44.795C163.194 44.795 163.005 44.8333 162.842 44.91C162.679 44.9867 162.557 45.09 162.477 45.22C162.4 45.35 162.362 45.5083 162.362 45.695C162.362 45.8617 162.392 45.995 162.452 46.095C162.515 46.195 162.592 46.2967 162.682 46.4C162.742 46.4667 162.815 46.54 162.902 46.62C162.989 46.7 163.079 46.7833 163.172 46.87L164.982 48.545C164.985 48.4783 164.987 48.4067 164.987 48.33C164.987 48.25 164.987 48.175 164.987 48.105V47.225H166.047V48.53C166.047 48.71 166.042 48.885 166.032 49.055C166.022 49.2217 166.002 49.36 165.972 49.47L166.867 50.29L166.092 51.115L165.397 50.455C165.227 50.615 165.04 50.745 164.837 50.845C164.634 50.945 164.429 51.0167 164.222 51.06C164.072 51.0967 163.929 51.12 163.792 51.13C163.655 51.1433 163.515 51.15 163.372 51.15ZM163.422 50.005C163.525 50.005 163.622 50 163.712 49.99C163.805 49.98 163.895 49.96 163.982 49.93C164.105 49.8933 164.21 49.85 164.297 49.8C164.387 49.75 164.465 49.6983 164.532 49.645L162.627 47.895C162.537 47.9283 162.455 47.9717 162.382 48.025C162.312 48.075 162.252 48.1317 162.202 48.195C162.139 48.2783 162.089 48.3767 162.052 48.49C162.019 48.6 162.002 48.7217 162.002 48.855C162.005 49.0083 162.03 49.145 162.077 49.265C162.124 49.3817 162.185 49.4867 162.262 49.58C162.382 49.7333 162.554 49.8433 162.777 49.91C163 49.9733 163.215 50.005 163.422 50.005ZM174.679 51V43.8H177.534C178.02 43.8 178.419 43.8983 178.729 44.095C179.042 44.2883 179.274 44.5367 179.424 44.84C179.577 45.1433 179.654 45.4567 179.654 45.78C179.654 46.1767 179.559 46.5133 179.369 46.79C179.182 47.0667 178.927 47.2533 178.604 47.35V47.1C179.057 47.2033 179.4 47.4183 179.634 47.745C179.87 48.0717 179.989 48.4433 179.989 48.86C179.989 49.2867 179.907 49.66 179.744 49.98C179.58 50.3 179.337 50.55 179.014 50.73C178.694 50.91 178.297 51 177.824 51H174.679ZM175.899 49.865H177.674C177.884 49.865 178.072 49.8233 178.239 49.74C178.405 49.6533 178.535 49.5333 178.629 49.38C178.725 49.2233 178.774 49.0383 178.774 48.825C178.774 48.6317 178.732 48.4583 178.649 48.305C178.565 48.1517 178.444 48.03 178.284 47.94C178.124 47.8467 177.932 47.8 177.709 47.8H175.899V49.865ZM175.899 46.675H177.519C177.692 46.675 177.847 46.6417 177.984 46.575C178.12 46.5083 178.229 46.41 178.309 46.28C178.389 46.15 178.429 45.99 178.429 45.8C178.429 45.55 178.349 45.3417 178.189 45.175C178.029 45.0083 177.805 44.925 177.519 44.925H175.899V46.675ZM182.987 51L185.257 43.8H187.022L189.292 51H188.052L185.992 44.54H186.262L184.227 51H182.987ZM184.252 49.44V48.315H188.032V49.44H184.252ZM192.696 51V43.8H195.671C195.741 43.8 195.831 43.8033 195.941 43.81C196.051 43.8133 196.153 43.8233 196.246 43.84C196.663 43.9033 197.006 44.0417 197.276 44.255C197.549 44.4683 197.751 44.7383 197.881 45.065C198.014 45.3883 198.081 45.7483 198.081 46.145C198.081 46.7317 197.933 47.2367 197.636 47.66C197.339 48.08 196.884 48.34 196.271 48.44L195.756 48.485H193.901V51H192.696ZM196.831 51L195.411 48.07L196.636 47.8L198.196 51H196.831ZM193.901 47.36H195.621C195.688 47.36 195.763 47.3567 195.846 47.35C195.929 47.3433 196.006 47.33 196.076 47.31C196.276 47.26 196.433 47.1717 196.546 47.045C196.663 46.9183 196.744 46.775 196.791 46.615C196.841 46.455 196.866 46.2983 196.866 46.145C196.866 45.9917 196.841 45.835 196.791 45.675C196.744 45.5117 196.663 45.3667 196.546 45.24C196.433 45.1133 196.276 45.025 196.076 44.975C196.006 44.955 195.929 44.9433 195.846 44.94C195.763 44.9333 195.688 44.93 195.621 44.93H193.901V47.36Z" fill="#BBBBBB"/>
<path d="M34.6394 52.4339C32.5248 53.0163 30.3027 53.3299 28 53.3299C14.0314 53.3299 2.67008 41.9686 2.67008 28C2.67008 17.3376 9.29152 8.1984 18.6458 4.47104V18.6368H18.3411C15.5635 18.6368 13.3146 20.8858 13.3146 23.6634V43.9667C13.3146 44.7014 13.9149 45.3018 14.6496 45.3018C15.3843 45.3018 15.9846 44.7014 15.9846 43.9667V30.6342C15.9846 29.8995 16.585 29.2992 17.3197 29.2992C18.0544 29.2992 18.6547 29.8995 18.6547 30.6342V43.9667C18.6547 44.7014 19.255 45.3018 19.9898 45.3018C20.7245 45.3018 21.3248 44.7014 21.3248 43.9667V30.6342C21.3248 29.8995 21.9251 29.2992 22.6598 29.2992C23.3946 29.2992 23.9949 29.8995 23.9949 30.6342V43.9667C23.9949 44.7014 24.5952 45.3018 25.3299 45.3018C26.0646 45.3018 26.665 44.7014 26.665 43.9667V23.6634C26.665 20.8858 24.416 18.6368 21.6384 18.6368H21.3338V0.81536C9.08544 3.82592 0 14.8646 0 28C0 43.4381 12.5619 56 28 56C30.2848 56 32.5069 55.7222 34.6394 55.2026V52.4339Z" fill="#FFCB6A"/>
<path d="M28 0C26.6291 0 25.2851 0.10752 23.968 0.29568V2.99264C25.2762 2.7776 26.6291 2.67008 28 2.67008C41.9686 2.67008 53.3299 14.0314 53.3299 28C53.3299 37.641 47.9181 46.0365 39.9706 50.3194V13.0995C39.9706 11.3165 38.1069 10.0979 36.4941 10.8774C33.815 12.1677 31.9693 14.9094 31.9693 18.0902V40.6694C31.9693 42.9274 33.7971 44.7552 36.055 44.7552C36.745 44.7552 37.3005 45.3107 37.3005 46.0006V54.4051C48.1869 50.5613 56 40.1766 56 28C56 12.5619 43.4381 0 28 0Z" fill="#FFCB6A"/>
</svg>
